<svg enable-background="new 0 0 1927.6 218.6" viewBox="0 0 1927.6 218.6" xmlns="http://www.w3.org/2000/svg"><path d="m1202.8 100.8-66.4 115.1h132.9z" fill="#00aca0"/><path d="m1539.9 189.8h117.5v26.1h-145.7v-190.5h28.2zm-1237.9-138.3h67v164.3h28.2v-164.3h67v-26.1h-162.2zm1625.6 0v-26.1h-145.8v190.4h145.8v-26.1h-117.6v-56.2h106.3v-25.9h-106.3v-56.1zm-1266.5 51.9c-33.7-8.8-49-15.6-49-29 0-12.8 14.4-25.6 48.8-25.6s52.1 20 58.2 26.3l21.5-18.1c-24.1-28.8-57.8-34.4-79.5-34.4-55.3 0-78 27.3-78 51.9 0 37.4 36.2 46.1 78 57 22.4 5.9 51.3 12.8 52.1 32.1.6 16.5-20 28.9-52.1 28.9-26.8 0-48.8-14.9-56.2-21.5l-22.1 18.6c15.2 15 45.9 29 78.3 29 34.2 0 81.1-13 81.1-55 0-41.8-47.8-51.5-81.1-60.2zm309.5 86.9c-38.7 0-70-31.3-70-70s31.3-70 70-70c21.5 0 40.7 9.7 53.6 25l21.4-18c-18.6-22.1-46.1-34.9-75-34.9-53.8 0-98 44.2-98 98s44.2 98 98 98c29 0 56.5-12.8 75.1-35l-21.5-18c-12.8 15.2-32.1 24.9-53.6 24.9zm-860.7-164.9-109.9 190.4h30l29.4-51h100.9l29.4 51h30zm-35.4 113.5 35.5-61.4 35.5 61.4zm1150.9-51.1 7.5 13 28.1-48.8 79.6 137.8h-56.3l7.5 13.1 7.5 12.9h86.3l-124.6-215.8-43.1 74.7z" fill="#414141"/></svg>