<?xml version="1.0" encoding="utf-8"?>
<!-- Generator: Adobe Illustrator 19.1.0, SVG Export Plug-In . SVG Version: 6.00 Build 0)  -->
<svg version="1.1" id="Calque_1" xmlns="http://www.w3.org/2000/svg" xmlns:xlink="http://www.w3.org/1999/xlink" x="0px" y="0px"
	 viewBox="-289 381 32 32" style="enable-background:new -289 381 32 32;" xml:space="preserve">
<style type="text/css">
	.st0{fill:#FFFFFF;}
</style>
<g>
	<g>
		<g>
			<path class="st0" d="M-282,413c1,0,1.7-0.3,2.5-0.8l18-11c1.5-1,2.5-2.5,2.5-4.2s-1-3.3-2.5-4.2l-18-11c-0.8-0.5-1.7-0.8-2.5-0.8
				c-0.8,0-1.7,0.3-2.5,0.8c-1.5,1-2.5,2.5-2.5,4.2v22.3c0,1.7,1,3.5,2.5,4.2C-283.8,413-282.8,413-282,413 M-282,408v-22.3l18,11
				L-282,408L-282,408z"/>
		</g>
	</g>
</g>
</svg>
