<?xml version="1.0" encoding="UTF-8" standalone="no"?>
<svg
   xmlns:dc="http://purl.org/dc/elements/1.1/"
   xmlns:cc="http://creativecommons.org/ns#"
   xmlns:rdf="http://www.w3.org/1999/02/22-rdf-syntax-ns#"
   xmlns:svg="http://www.w3.org/2000/svg"
   xmlns="http://www.w3.org/2000/svg"
   viewBox="0 0 434.78668 99.040001"
   height="99.040001"
   width="434.78668"
   xml:space="preserve"
   id="svg2"
   version="1.1"><metadata
     id="metadata8"><rdf:RDF><cc:Work
         rdf:about=""><dc:format>image/svg+xml</dc:format><dc:type
           rdf:resource="http://purl.org/dc/dcmitype/StillImage" /></cc:Work></rdf:RDF></metadata><defs
     id="defs6" /><g
     transform="matrix(1.3333333,0,0,-1.3333333,0,99.04)"
     id="g10"><g
       transform="scale(0.1)"
       id="g12"><path
         id="path14"
         style="fill:#f03a32;fill-opacity:1;fill-rule:nonzero;stroke:none"
         d="M 417.465,742.813 181.16,222.949 H 0 l 236.301,519.864 h 181.164" /><path
         id="path16"
         style="fill:#f03a32;fill-opacity:1;fill-rule:nonzero;stroke:none"
         d="m 624.07,517.422 c 0,11.711 -7.675,17.57 -23.019,17.57 -18.586,0 -31.719,-8.488 -39.387,-25.449 L 484.711,338.684 c -1.613,-3.645 -2.422,-7.278 -2.422,-10.911 0,-11.316 8.481,-16.972 25.449,-16.972 16.153,0 28.075,8.488 35.746,25.449 l 78.164,172.082 c 1.61,3.633 2.422,6.668 2.422,9.09 z m 164.809,61.797 c 0,-6.465 -2.426,-14.942 -7.274,-25.449 L 658.004,281.113 c -10.508,-23.425 -23.84,-39.179 -39.992,-47.254 -14.539,-7.277 -36.762,-10.91 -66.649,-10.91 H 373.832 c -17.777,0 -31.703,3.938 -41.805,11.817 -10.093,7.871 -15.148,18.476 -15.148,31.808 0,6.063 2.422,14.539 7.269,25.449 l 123,272.657 c 10.497,23.425 24.028,39.179 40.594,47.265 14.137,7.266 36.149,10.907 66.047,10.907 h 177.527 c 17.77,0 31.809,-3.946 42.114,-11.817 10.3,-7.879 15.449,-18.484 15.449,-31.816" /><path
         id="path18"
         style="fill:#f03a32;fill-opacity:1;fill-rule:nonzero;stroke:none"
         d="M 1301.9,742.813 1249.91,628.605 H 1131.76 L 947.445,222.949 H 766.277 l 184.321,405.656 h -133.91 l 51.988,114.208 H 1301.9" /><path
         id="path20"
         style="fill:#393536;fill-opacity:1;fill-rule:nonzero;stroke:none"
         d="m 1813.89,685.313 c 0,-8.934 -2.89,-19.688 -8.67,-32.293 L 1609.88,222.949 h -181.16 l 168.56,370.996 c 1.57,3.672 2.36,7.61 2.36,11.817 0,15.226 -9.19,22.843 -27.57,22.843 h -37.81 L 1349.95,222.949 h -181.17 l 236.3,519.864 h 334.77 c 49.35,0 74.04,-19.168 74.04,-57.5" /><path
         id="path22"
         style="fill:#393536;fill-opacity:1;fill-rule:nonzero;stroke:none"
         d="m 2136.84,605.762 c 0,15.226 -9.98,22.843 -29.94,22.843 -24.16,0 -41.23,-11.027 -51.2,-33.085 L 1955.67,373.398 c -2.11,-4.726 -3.15,-9.453 -3.15,-14.179 0,-14.707 11.02,-22.059 33.08,-22.059 21,0 36.49,11.035 46.48,33.086 l 101.61,223.699 c 2.09,4.727 3.15,8.664 3.15,11.817 z m 214.24,80.343 c 0,-8.41 -3.15,-19.433 -9.45,-33.085 L 2180.95,298.566 c -13.66,-30.461 -30.99,-50.937 -51.99,-61.437 -18.91,-9.453 -47.79,-14.18 -86.65,-14.18 h -230.79 c -23.11,0 -41.21,5.117 -54.35,15.364 -13.12,10.234 -19.68,24.023 -19.68,41.347 0,7.879 3.14,18.906 9.44,33.086 l 159.9,354.453 c 13.65,30.449 31.24,50.926 52.78,61.446 18.37,9.441 46.99,14.168 85.85,14.168 h 230.79 c 23.11,0 41.36,-5.118 54.75,-15.352 13.39,-10.242 20.08,-24.031 20.08,-41.356" /><path
         id="path24"
         style="fill:#393536;fill-opacity:1;fill-rule:nonzero;stroke:none"
         d="m 3260.85,742.813 -51.98,-114.208 h -13.39 c -36.76,0 -63.81,-13.39 -81.13,-40.175 L 2877.26,222.949 h -115 l -36.24,289.864 -162.26,-289.864 h -115 l -55.93,519.864 h 173.29 l 11.82,-274.11 165.41,274.11 h 110.27 l 25.21,-274.11 131.54,231.582 c 16.27,28.36 48.84,42.528 97.67,42.528 h 152.81" /><path
         id="path26"
         style="fill:#393536;fill-opacity:1;fill-rule:nonzero;stroke:none"
         d="M 10.3125,87.3555 H 29.2109 V 53.3711 h 34.836 V 87.3555 H 82.9414 V 1.47656 H 64.0469 V 35.9492 H 29.2109 V 1.47656 H 10.3125 V 87.3555" /><path
         id="path28"
         style="fill:#393536;fill-opacity:1;fill-rule:nonzero;stroke:none"
         d="m 177.969,44.1719 v 0.2422 c 0,14.7187 -10.789,26.9922 -26.004,26.9922 -15.219,0 -25.766,-12.0313 -25.766,-26.7461 v -0.2461 c 0,-14.7266 10.797,-26.9922 26.008,-26.9922 15.215,0 25.762,12.0234 25.762,26.75 z m -71.52,0 v 0.2422 c 0,24.414 19.258,44.414 45.758,44.414 26.5,0 45.52,-19.7539 45.52,-44.1679 V 44.4141 C 197.727,20 178.461,0 151.965,0 c -26.5,0 -45.516,19.7578 -45.516,44.1719" /><path
         id="path30"
         style="fill:#393536;fill-opacity:1;fill-rule:nonzero;stroke:none"
         d="m 209.695,87.3555 h 20.243 l 17.789,-58.1563 19.261,58.3985 h 16.196 l 19.257,-58.3985 17.789,58.1563 h 19.75 L 310.664,0.859375 H 294.223 L 274.84,57.0508 255.453,0.859375 H 239.02 L 209.695,87.3555" /><path
         id="path32"
         style="fill:#393536;fill-opacity:1;fill-rule:nonzero;stroke:none"
         d="m 424.176,69.9336 h -26.133 v 17.4219 h 71.156 V 69.9336 H 443.066 V 1.47656 h -18.89 V 69.9336" /><path
         id="path34"
         style="fill:#393536;fill-opacity:1;fill-rule:nonzero;stroke:none"
         d="m 554.426,44.1719 v 0.2422 c 0,14.7187 -10.805,26.9922 -26.012,26.9922 -15.211,0 -25.762,-12.0313 -25.762,-26.7461 v -0.2461 c 0,-14.7266 10.793,-26.9922 26.004,-26.9922 15.215,0 25.77,12.0234 25.77,26.75 z m -71.528,0 v 0.2422 c 0,24.414 19.258,44.414 45.758,44.414 26.5,0 45.52,-19.7539 45.52,-44.1679 V 44.4141 C 574.176,20 554.91,0 528.414,0 c -26.5,0 -45.516,19.7578 -45.516,44.1719" /><path
         id="path36"
         style="fill:#393536;fill-opacity:1;fill-rule:nonzero;stroke:none"
         d="m 679.238,45.6445 c 9.203,0 14.477,4.9024 14.477,12.1407 v 0.2421 c 0,8.0977 -5.645,12.2774 -14.844,12.2774 H 660.102 V 45.6445 Z m -38.027,41.711 h 39.258 c 10.918,0 19.379,-3.0664 25.023,-8.711 4.785,-4.7851 7.36,-11.5351 7.36,-19.6289 v -0.2461 c 0,-13.8672 -7.481,-22.5781 -18.399,-26.6211 L 715.43,1.47656 H 693.352 L 674.945,28.957 H 660.102 V 1.47656 H 641.211 V 87.3555" /><path
         id="path38"
         style="fill:#393536;fill-opacity:1;fill-rule:nonzero;stroke:none"
         d="m 735.258,38.2813 v 49.0742 h 18.89 v -48.586 c 0,-13.9843 6.997,-21.2187 18.528,-21.2187 11.535,0 18.523,6.9922 18.523,20.6055 v 49.1992 h 18.895 V 38.8984 c 0,-26.0156 -14.598,-38.769494 -37.66,-38.769494 -23.071,0 -37.176,12.878894 -37.176,38.152394" /><path
         id="path40"
         style="fill:#393536;fill-opacity:1;fill-rule:nonzero;stroke:none"
         d="m 836.055,87.3555 h 17.418 l 40.238,-52.8828 v 52.8828 h 18.648 V 1.47656 h -16.07 L 854.695,56.0664 V 1.47656 h -18.64 V 87.3555" /><path
         id="path42"
         style="fill:#393536;fill-opacity:1;fill-rule:nonzero;stroke:none"
         d="m 1032.52,37.4219 -11.41,27.8515 -11.41,-27.8515 z m -19.87,50.5469 h 17.41 l 36.81,-86.49224 h -19.75 l -7.85,19.25784 h -36.32 L 995.102,1.47656 H 975.84 l 36.81,86.49224" /><path
         id="path44"
         style="fill:#393536;fill-opacity:1;fill-rule:nonzero;stroke:none"
         d="m 1086.82,87.3555 h 17.41 l 40.24,-52.8828 v 52.8828 h 18.65 V 1.47656 h -16.07 L 1105.46,56.0664 V 1.47656 h -18.64 V 87.3555" /><path
         id="path46"
         style="fill:#393536;fill-opacity:1;fill-rule:nonzero;stroke:none"
         d="m 1234.82,1.47656 h 18.8984 v 85.8789 H 1234.82 Z" /><path
         id="path48"
         style="fill:#393536;fill-opacity:1;fill-rule:nonzero;stroke:none"
         d="m 1329.51,33.9844 v 0.2461 c 0,9.6953 -7,18.1523 -17.3,18.1523 -10.68,0 -17.05,-8.2109 -17.05,-17.9101 v -0.2422 c 0,-9.6875 6.99,-18.1563 17.3,-18.1563 10.67,0 17.05,8.2227 17.05,17.9102 z m -52.76,0 v 0.2461 c 0,18.8945 15.22,34.2265 35.71,34.2265 20.36,0 35.45,-15.0859 35.45,-33.9843 V 34.2305 C 1347.91,15.3438 1332.7,0 1312.21,0 c -20.36,0 -35.46,15.0898 -35.46,33.9844" /><path
         id="path50"
         style="fill:#393536;fill-opacity:1;fill-rule:nonzero;stroke:none"
         d="m 1390.07,69.9336 h -26.13 v 17.4219 h 71.15 V 69.9336 h -26.13 V 1.47656 h -18.89 V 69.9336" /><path
         id="path52"
         style="fill:#f03a32;fill-opacity:1;fill-rule:nonzero;stroke:none"
         d="m 1499.8,87.3555 h 64.78 V 70.5469 h -46 V 53.125 h 40.48 V 36.3203 h -40.48 v -18.039 h 46.62 V 1.47656 h -65.4 V 87.3555" /><path
         id="path54"
         style="fill:#f03a32;fill-opacity:1;fill-rule:nonzero;stroke:none"
         d="m 1588.71,87.3555 h 17.42 l 40.24,-52.8828 v 52.8828 h 18.64 V 1.47656 h -16.06 l -41.6,54.58984 V 1.47656 h -18.64 V 87.3555" /><path
         id="path56"
         style="fill:#f03a32;fill-opacity:1;fill-rule:nonzero;stroke:none"
         d="m 1741.64,37.4219 -11.41,27.8515 -11.41,-27.8515 z m -19.87,50.5469 h 17.41 l 36.81,-86.49224 h -19.75 l -7.85,19.25784 h -36.31 l -7.86,-19.25784 h -19.26 l 36.81,86.49224" /><path
         id="path58"
         style="fill:#f03a32;fill-opacity:1;fill-rule:nonzero;stroke:none"
         d="m 1836.18,36.9336 h -21.84 V 18.0391 h 22.45 c 8.35,0 13.38,2.9375 13.38,9.3242 v 0.2461 c 0,5.7617 -4.3,9.3242 -13.99,9.3242 z m 9.2,25.0195 c 0,5.6446 -4.42,8.8399 -12.39,8.8399 h -18.65 V 52.6367 h 17.42 c 8.35,0 13.62,2.6953 13.62,9.0742 z m -49.44,25.4024 h 39.87 c 9.82,0 17.54,-2.7071 22.45,-7.6094 3.93,-3.9258 5.89,-8.7109 5.89,-14.5977 v -0.2461 c 0,-9.6953 -5.15,-15.0859 -11.29,-18.5234 9.94,-3.8086 16.08,-9.5703 16.08,-21.1055 v -0.2421 c 0,-15.70317 -12.76,-23.55474 -32.15,-23.55474 h -40.85 V 87.3555" /><path
         id="path60"
         style="fill:#f03a32;fill-opacity:1;fill-rule:nonzero;stroke:none"
         d="m 1891.21,87.3555 h 18.9 V 18.6523 h 42.81 V 1.47656 h -61.71 V 87.3555" /><path
         id="path62"
         style="fill:#f03a32;fill-opacity:1;fill-rule:nonzero;stroke:none"
         d="m 1973.87,87.3555 h 64.77 V 70.5469 h -46 V 53.125 h 40.48 V 36.3203 h -40.48 v -18.039 h 46.61 V 1.47656 h -65.38 V 87.3555" /><path
         id="path64"
         style="fill:#f03a32;fill-opacity:1;fill-rule:nonzero;stroke:none"
         d="M 2081.66,70.3047 V 18.5273 h 14.6 c 15.45,0 25.88,10.4297 25.88,25.6446 v 0.2422 c 0,15.2148 -10.43,25.8906 -25.88,25.8906 z m -18.9,17.0508 h 33.5 c 26.99,0 45.63,-18.5274 45.63,-42.6953 v -0.2461 c 0,-24.168 -18.64,-42.93754 -45.63,-42.93754 h -33.5 V 87.3555" /><path
         id="path66"
         style="fill:#393536;fill-opacity:1;fill-rule:nonzero;stroke:none"
         d="m 2249.17,36.9336 h -21.84 V 18.0391 h 22.45 c 8.35,0 13.37,2.9375 13.37,9.3242 v 0.2461 c 0,5.7617 -4.29,9.3242 -13.98,9.3242 z m 9.2,25.0195 c 0,5.6446 -4.42,8.8399 -12.39,8.8399 h -18.65 V 52.6367 h 17.42 c 8.35,0 13.62,2.6953 13.62,9.0742 z m -49.44,25.4024 h 39.87 c 9.81,0 17.54,-2.7071 22.45,-7.6094 3.93,-3.9258 5.89,-8.7109 5.89,-14.5977 v -0.2461 c 0,-9.6953 -5.15,-15.0859 -11.29,-18.5234 9.94,-3.8086 16.07,-9.5703 16.07,-21.1055 v -0.2421 c 0,-15.70317 -12.75,-23.55474 -32.14,-23.55474 h -40.85 V 87.3555" /><path
         id="path68"
         style="fill:#393536;fill-opacity:1;fill-rule:nonzero;stroke:none"
         d="m 2302.86,38.2813 v 49.0742 h 18.89 v -48.586 c 0,-13.9843 6.99,-21.2187 18.52,-21.2187 11.54,0 18.53,6.9922 18.53,20.6055 v 49.1992 h 18.89 V 38.8984 c 0,-26.0156 -14.59,-38.769494 -37.66,-38.769494 -23.07,0 -37.17,12.878894 -37.17,38.152394" /><path
         id="path70"
         style="fill:#393536;fill-opacity:1;fill-rule:nonzero;stroke:none"
         d="m 2397.76,13.9844 11.17,13.3789 c 7.73,-6.3867 15.83,-10.4297 25.64,-10.4297 7.73,0 12.39,3.0664 12.39,8.0977 v 0.2421 c 0,4.7852 -2.94,7.2383 -17.3,10.918 -17.3,4.4141 -28.46,9.1992 -28.46,26.2617 v 0.2422 c 0,15.5781 12.52,25.8789 30.06,25.8789 12.51,0 23.18,-3.9258 31.89,-10.9179 l -9.81,-14.2266 c -7.61,5.2734 -15.09,8.4648 -22.33,8.4648 -7.24,0 -11.04,-3.3086 -11.04,-7.4804 v -0.2539 c 0,-5.6329 3.68,-7.4805 18.53,-11.2774 17.42,-4.543 27.23,-10.8008 27.23,-25.7617 v -0.2539 c 0,-17.05079 -13.01,-26.621106 -31.53,-26.621106 -13,0 -26.13,4.539066 -36.44,13.738306" /><path
         id="path72"
         style="fill:#393536;fill-opacity:1;fill-rule:nonzero;stroke:none"
         d="m 2489.73,1.47656 h 18.8984 v 85.8789 H 2489.73 Z" /><path
         id="path74"
         style="fill:#393536;fill-opacity:1;fill-rule:nonzero;stroke:none"
         d="m 2536.83,87.3555 h 17.41 l 40.24,-52.8828 v 52.8828 h 18.65 V 1.47656 h -16.07 L 2555.47,56.0664 V 1.47656 h -18.64 V 87.3555" /><path
         id="path76"
         style="fill:#393536;fill-opacity:1;fill-rule:nonzero;stroke:none"
         d="m 2640.44,87.3555 h 64.77 V 70.5469 h -46 V 53.125 h 40.48 V 36.3203 h -40.48 v -18.039 h 46.62 V 1.47656 h -65.39 V 87.3555" /><path
         id="path78"
         style="fill:#393536;fill-opacity:1;fill-rule:nonzero;stroke:none"
         d="m 2723.45,13.9844 11.16,13.3789 c 7.73,-6.3867 15.83,-10.4297 25.64,-10.4297 7.73,0 12.4,3.0664 12.4,8.0977 v 0.2421 c 0,4.7852 -2.95,7.2383 -17.3,10.918 -17.3,4.4141 -28.47,9.1992 -28.47,26.2617 v 0.2422 c 0,15.5781 12.52,25.8789 30.06,25.8789 12.51,0 23.19,-3.9258 31.9,-10.9179 l -9.82,-14.2266 c -7.6,5.2734 -15.08,8.4648 -22.33,8.4648 -7.23,0 -11.04,-3.3086 -11.04,-7.4804 v -0.2539 c 0,-5.6329 3.69,-7.4805 18.53,-11.2774 17.42,-4.543 27.24,-10.8008 27.24,-25.7617 v -0.2539 c 0,-17.05079 -13.01,-26.621106 -31.53,-26.621106 -13.01,0 -26.14,4.539066 -36.44,13.738306" /><path
         id="path80"
         style="fill:#393536;fill-opacity:1;fill-rule:nonzero;stroke:none"
         d="m 2807.45,13.9844 11.16,13.3789 c 7.73,-6.3867 15.83,-10.4297 25.64,-10.4297 7.73,0 12.4,3.0664 12.4,8.0977 v 0.2421 c 0,4.7852 -2.95,7.2383 -17.3,10.918 -17.3,4.4141 -28.47,9.1992 -28.47,26.2617 v 0.2422 c 0,15.5781 12.52,25.8789 30.06,25.8789 12.51,0 23.19,-3.9258 31.9,-10.9179 l -9.82,-14.2266 c -7.6,5.2734 -15.09,8.4648 -22.33,8.4648 -7.23,0 -11.04,-3.3086 -11.04,-7.4804 v -0.2539 c 0,-5.6329 3.68,-7.4805 18.53,-11.2774 17.42,-4.543 27.24,-10.8008 27.24,-25.7617 v -0.2539 c 0,-17.05079 -13.01,-26.621106 -31.53,-26.621106 -13.01,0 -26.14,4.539066 -36.44,13.738306" /></g></g></svg>